<svg width="42" height="42" viewBox="0 0 42 42" fill="none" xmlns="http://www.w3.org/2000/svg">
<g clip-path="url(#clip0_35_186)">
      <path fill="white" fill-opacity="0.8" d="M40.31,29.79c-.83-1.04-1.72-2.02-2.67-2.95h-5.53c-.4,0-.73-.33-.73-.73,0-.4.33-.73.73-.73h4.03c-.73-.71-1.46-1.43-2.14-2.18h-5.33c-.4,0-.73-.33-.74-.73,0-.4.33-.73.73-.74,0,0,0,0,0,0h4.07c-.54-.7-1.03-1.44-1.46-2.21h-4.93c-.4-.01-.72-.35-.71-.75.01-.39.32-.7.71-.71h4.15c-.63-1.24-1.2-2.5-1.8-3.74-.37-.74-.73-1.51-1.07-2.28-.15-.33-.52-.5-.86-.4-6.58,2.06-10.95-3.2-12.51-7.76-1.78-3.42-5.14.05-7.52,3.52-1.3,2-2.32,4.18-3.03,6.46-.24.37-.18.86.15,1.17,2.39,1.77,14.98,11.08,17.52,13.13,5.8,4.52,14.25,7.08,18.14,6.07,1.67-.74,1.92-3.13.79-4.43h0Z"/>
      <path fill="white" fill-opacity="0.8" d="M23.83,10.59c1.2.13,2.53-.66,3.74-.37-.24-1.01-1-3.18-2.51-3-1.11.15-2.31,1.72-3.16,3.11.63.18,1.28.27,1.93.26Z"/>
      <path fill="white" fill-opacity="0.8" d="M39.92,35.65c-4.58,1.11-13.27-1.59-19.45-6.36-2.46-1.99-16.55-12.42-17.15-12.86-.64-.35-1.08-.98-1.19-1.71-3.43,2.57-2.18,5.91.11,8.3,2.24,2.61,4.5,3.44,7.6,4.54,3.9,1.27,7.61,3.07,11.04,5.33,1.47.94,2.99,1.91,4.6,2.73,2.29.99,4.7,1.66,7.17,2,1.61.43,5.24.74,6.92-.68.6-.45,1.04-1.08,1.25-1.8-.27.21-.57.38-.89.51Z"/>
</g>
<defs>
<clipPath id="clip0_35_186">
<rect width="41" height="41" fill="white" transform="translate(0.499756 0.5)"/>
</clipPath>
</defs>
</svg>
