<svg xmlns="http://www.w3.org/2000/svg" width="42" height="42" viewBox="0 0 40.44 40.44">
  <defs>
    <clipPath id="clippath">
      <rect width="40.44" height="40.44"/>
    </clipPath>
  </defs>
    <g>
      <path fill="white" fill-opacity="0.2" d="M18.46,29.11l-6.02-14.95c1.14-.58,1.93-1.75,1.93-3.12,0-1.52-.98-2.81-2.34-3.29v-.42c1.36-.48,2.34-1.78,2.34-3.31,0-1.94-1.57-3.51-3.51-3.51s-3.51,1.57-3.51,3.51c0,.65.52,1.17,1.17,1.17s1.17-.52,1.17-1.17.52-1.17,1.17-1.17,1.17.52,1.17,1.17-.52,1.17-1.17,1.17-1.17.52-1.17,1.17v1.39c-1.36.48-2.34,1.77-2.34,3.29,0,1.37.79,2.54,1.93,3.12l-6.02,14.95c-.4.97-.6,2.01-.6,3.07,0,4.52,3.67,8.27,8.19,8.27s8.19-3.75,8.19-8.27c0-1.06-.2-2.1-.6-3.07ZM10.86,28.67c-1.88,0-3.41-1.5-3.49-3.46l3.49-8.71,3.5,8.73c-.04,1.9-1.59,3.44-3.5,3.44Z"/>
      <path fill="white" fill-opacity="0.2" d="M37.18,29.11l-6.02-14.95c1.14-.58,1.93-1.75,1.93-3.12,0-1.52-.98-2.81-2.34-3.29v-.42c1.36-.48,2.34-1.78,2.34-3.31,0-1.94-1.57-3.51-3.51-3.51s-3.51,1.57-3.51,3.51c0,.65.52,1.17,1.17,1.17s1.17-.52,1.17-1.17.52-1.17,1.17-1.17,1.17.52,1.17,1.17-.52,1.17-1.17,1.17-1.17.52-1.17,1.17v1.39c-1.36.48-2.34,1.77-2.34,3.29,0,1.37.79,2.54,1.93,3.12l-6.02,14.95c-.4.97-.6,2.01-.6,3.07,0,4.52,3.67,8.27,8.19,8.27s8.19-3.75,8.19-8.27c0-1.06-.2-2.1-.6-3.07ZM29.58,28.67c-1.88,0-3.41-1.5-3.49-3.46l3.49-8.71,3.5,8.73c-.04,1.9-1.59,3.44-3.5,3.44Z"/>
    </g>
</svg>
