<svg width="42" height="42" viewBox="0 0 40 40" fill="none" xmlns="http://www.w3.org/2000/svg">
  <g clip-path="url(#clip0_35_273)">
    <path
      d="M15.26,21.22h-3.36c-.55,0-1-.45-1-1s.45-1,1-1h3.36v-4.48c-5.95-3.86-9.54-2.96-9.74-2.92-.2.05-.39.15-.52.31-.19.21-1.86,2.24-1.86,8.09s1.67,7.88,1.86,8.09c.14.15.32.26.52.31.06.01.57.12,1.42.12,1.75,0,4.32-.45,8.31-3.04v-4.48h0Z"
      fill="white" fill-opacity="0.2" />
    <path
      d="M35.44,12.13c-.14-.15-.32-.26-.52-.31-.19-.04-3.79-.94-9.74,2.92v4.48h3.36c.55,0,1,.45,1,1s-.45,1-1,1h-3.36v4.48c3.99,2.59,6.56,3.04,8.31,3.04.86,0,1.36-.11,1.42-.12.2-.05.39-.15.52-.31.19-.21,1.86-2.24,1.86-8.09s-1.67-7.88-1.86-8.09Z"
      fill="white" fill-opacity="0.2" />
    <path d="M17.27,14.83h5.91v10.78h-5.91v-10.78Z" fill="white" fill-opacity="0.2" />
  </g>
  <defs>
    <clipPath id="clip0_35_273">
      <rect x="0.5" y="0.5" width="41" height="41" fill="white" />
    </clipPath>
  </defs>
</svg>
