
<svg xmlns="http://www.w3.org/2000/svg" width="42" height="42"  viewBox="0 0 40.44 40.44">
  <defs>
    <clipPath id="clippath">
      <rect width="40.44" height="40.44"/>
    </clipPath>
  </defs>
    <g>
      <g>
        <path fill="white" fill-opacity="0.2" d="M7.16,33.45c-.62.81-1.27,1.74-1.8,2.52-.18.29.03.54.4.58.81-.61,1.26-1.72,1.91-2.57-.17-.18-.34-.36-.51-.53h0Z"/>
        <path fill="white" fill-opacity="0.2" d="M8.18,37.41c-.38.34-.91,1.1-.06,1.18.79-.56,1.32-1.45,1.98-2.14-.18-.17-.36-.34-.54-.51-.51.54-.96,1.02-1.38,1.48Z"/>
        <path fill="white" fill-opacity="0.2" d="M12.28,38.2s-.07-.05-.11-.08c-.38.42-3.02,2.05-1.67,2.32.88-.34,1.56-1.33,2.33-1.9-.17-.1-.35-.21-.54-.34h0Z"/>
        <path fill="white" fill-opacity="0.2" d="M30.62,38.86c-.54-.43-1.08-.84-1.64-1.26-.21.15-.45.28-.69.39.74.5,1.33,1.4,2.2,1.63.5.07.42-.56.13-.75h0Z"/>
        <path fill="white" fill-opacity="0.2" d="M34.91,34.76c-.33-.66-.93-1.16-1.38-1.76-.16.17-.32.34-.49.52.44.59.89,1.16,1.36,1.69.19.18.55-.14.51-.45Z"/>
        <path fill="white" fill-opacity="0.2" d="M32.62,36.54c-.41-.39-.85-.8-1.3-1.22-.17.18-.35.35-.53.53.57.46.92,1.26,1.67,1.4.4.05.39-.52.16-.71h0Z"/>
      </g>
      <g>
        <path fill="white" fill-opacity="0.2" d="M19.45,33.54c.21-.2.41-.4.62-.6-2.77-2.7-5.53-5.37-8.32-8.11-1.73,1.8-3.14,3.42-4.53,5.64-1.09,1.76,1.02,3.02,2.02,4.21,1.16,1.18,2.4,2.35,3.81,3.23.84.59,1.44.27,2.12-.34,1.49-1.29,2.85-2.67,4.28-4.04h0Z"/>
        <path fill="white" fill-opacity="0.2" d="M20.76,32.67c1.71,1.46,3.29,3.04,4.95,4.59.55.52.99.66,1.49.46.55-.22,1.2-.44,1.58-.81,1.72-1.65,3.36-3.38,4.59-4.7,2.02-2.22-11.71-12.96-13.29-14.88l-.02.02c-.1-.13-.33-.36-.45-.47l.02-.02c-2.37-3.41-10.77-10.09-10.06-15.1-15.21,8.49,4.07,23.87,11.18,30.9h0Z"/>
        <path fill="white" fill-opacity="0.2" d="M26.98,10.79c-.08.08-.54.51-.61.58h0s-5.81,5.51-5.81,5.51c2.44,2.31,5.07,4.69,8,7.25,5.83-5.5,13.29-17.24,2.57-22.26.64,3.34-2.89,7.51-4.18,8.91h.04Z"/>
        <path fill="white" fill-opacity="0.2" d="M14.08.57c-1.24.23-2.47.52-3.7.89-1.4,2.53,3.5,8.03,4.8,9.3,3.44-.58,6.96-.52,10.42-.13,0,0,0,0,0,0,.18.02.36.04.53.06.77-.8,5.36-5.73,4.25-9.1C25.1-.13,19.59-.43,14.08.57h0Z"/>
      </g>
    </g>
</svg>
