<svg xmlns="http://www.w3.org/2000/svg" width="42" height="42" viewBox="0 0 40.44 40.44">
  <defs>
    <clipPath id="clippath">
      <rect class="cls-2" width="40.44" height="40.44"/>
    </clipPath>
  </defs>
  <g>
    <path fill="white" fill-opacity="0.2" d="M39.52,25.4c-.37-1.71-1.01-3.35-1.9-4.85-.68-.81-1.47-1.54-2.34-2.15-.15.83-.52,1.6-1.07,2.24-.32.37-.91-.13-.58-.5.59-.63.92-1.46.93-2.33-.08-.51-.87-4.73-6.16-4.73-.41.03-.83-.06-1.19-.26l-2.7-1.63c-.11-.06-.18-.17-.18-.3-.05-.73-.38-1.87.16-2.47,1.95-2.17,0-4.13-.34-6.47-.33-1.15-1.38-1.94-2.58-1.95h-2.7c-1.21,0-2.27.82-2.59,1.98-.44,2.32-2.37,4.42-.34,6.43.51.47.17,1.67.16,2.47,0,.12-.08.24-.18.3l-2.7,1.63c-.31.18-.65.27-1.01.26-5.45-.09-6.26,4.21-6.34,4.73,0,.86.34,1.69.93,2.33.13.16.11.4-.05.54-.16.13-.39.11-.53-.04-.55-.63-.92-1.4-1.06-2.23-.89.61-1.68,1.35-2.37,2.17-.87,1.5-1.5,3.13-1.87,4.82-.41.92.92,3.5,1.25,3.97l4.26,3.7c.5.38.92,1.36,1.36,1.84l1.89,1.95c.52.49,1.29.6,1.92.28.42-.17.96-.08,1.25-.44.5-.66.69-1.5.5-2.31-.06-.41-.24-.79-.51-1.1-.64-.43-1.41-1.05-2.11-1.05-.39,0-.77-.15-1.04-.43-.91-.65-1.6-1.55-2-2.59l-.97-3.57c-.15-.21-.89-1.18-1.8-1.12-.21,0-.39-.16-.4-.37,0-.2.14-.38.34-.4.93.04,1.79.5,2.34,1.25l1.4-.6c1.24-.62,2.03-2.98,2.04-3.01.08-.2.3-.3.51-.23.09.03.16.1.2.18l2.2,4.6c.24.52.35,1.09.31,1.66l-.37,5.29c1.04,1.41.89,3.37-.36,4.61l-.88,2.93h15.92l-.88-2.93c-1.25-1.23-1.41-3.2-.36-4.61l-.37-5.29c-.04-.57.07-1.14.31-1.66l2.2-4.6c.1-.19.33-.26.52-.17.09.04.15.12.19.21,0,.02.79,2.39,2.06,3.03l1.38.58c.55-.75,1.41-1.21,2.34-1.25.21.02.36.21.34.42-.02.2-.19.35-.4.34-.92-.06-1.66.92-1.8,1.12l-.96,3.57c-.27,1.1-1.16,1.73-1.88,2.47-.26.32-.65.51-1.06.52-.83.14-1.59.52-2.21,1.08-.43.5-.64,1.16-.58,1.82.04.62.35,1.57.93,1.82.93.17,2.05.76,2.81-.08l1.89-1.96c.44-.48.86-1.45,1.37-1.85l4.23-3.67c.17-.26,1.69-2.77,1.27-3.98h0ZM18.14,20.18c-3.14,1.38-5.73-1.27-6.2-2.18-.22-.43.4-.82.65-.39.08.13,1.95,3.17,5.27,1.86.2-.07.42.03.49.22.07.19-.02.41-.21.49h0ZM28.49,17.99c-.48.92-3.06,3.56-6.2,2.18-.2-.08-.29-.3-.21-.49.08-.19.29-.29.49-.21,3.32,1.31,5.19-1.73,5.27-1.86.11-.18.34-.24.52-.13.18.11.24.34.13.52h0Z"/>
  </g>
</svg>
