<svg width="42" height="42" viewBox="0 0 27 27" fill="none" xmlns="http://www.w3.org/2000/svg">
<g clip-path="url(#clip0_35_186)">
<path fill-rule="evenodd" clip-rule="evenodd" d="M25.05,20.08c-.36-1.38-.75-2.75-1.21-4.11-.56-1.66-1.18-3.3-1.86-4.91-.56-1.33-1.43-2.45-2.67-3.23-.2-.13-.4-.27-.6-.4.45-.68.28-1.31-.08-1.91-.53-.9-1.06-1.81-1.63-2.69-.68-1.08-1.59-1.91-2.79-2.4-.4-.17-.83-.27-1.24-.4-.41-.05-.98-.02-.98-.02-.95.18-1.84.53-2.54,1.19-.46.45-.91.95-1.24,1.49-.66,1.09-1.26,2.21-1.84,3.35-.15.28-.15.66-.15,1,0,.18.13.35.22.53-.38.23-.78.41-1.11.66-1.11.83-1.81,1.94-2.31,3.17-1.04,2.59-1.99,5.21-2.69,7.91-.2.78-.25,1.61-.33,2.42-.03.4.13.71.55.88.63.25,1.24.51,1.84.83.46.25.83.13,1.19-.17.55-.45.91-1.04,1.23-1.68.1-.18.18-.38.32-.65.05.17.08.27.12.36.25.51.48,1.03.75,1.53.17.32.43.43.8.43,1.81,0,3.62-.02,5.42-.02v-13.02c-1.77-.46-3.32-1.36-4.63-2.64-.12-.12-.23-.22-.33-.33-.25-.25-.2-.56.15-.63.55-.12,1.09-.23,1.66-.27,1.18-.08,2.36-.12,3.86-.18,1.19.08,2.7.18,4.23.3.17.02.35.07.51.12.45.13.56.53.22.85-.56.5-1.14,1-1.76,1.43-.96.66-2.02,1.09-3.15,1.38v13c1.68,0,3.33,0,5.01.03.71.02,1.09-.28,1.39-.83.05-.08.1-.18.13-.28.17-.41.32-.83.48-1.28.07.13.12.25.17.35.32.71.71,1.36,1.28,1.89.45.41.93.58,1.53.28.65-.33,1.29-.65,1.94-.98.1-.05.17-.17.2-.28.17-.7.12-1.41-.05-2.09h0Z" fill="white" fill-opacity="0.2"/>
</g>
<defs>
<clipPath id="clip0_35_186">
<rect width="41" height="41" fill="white" transform="translate(0.499756 0.5)"/>
</clipPath>
</defs>
</svg>
